<svg width="1600" height="820" viewBox="0 0 1600 820" fill="none" xmlns="http://www.w3.org/2000/svg">
  <defs>
    <linearGradient id="bgZh" x1="0" y1="0" x2="1600" y2="820" gradientUnits="userSpaceOnUse">
      <stop stop-color="#F5F7FB"/>
      <stop offset="1" stop-color="#EEF3FA"/>
    </linearGradient>
    <linearGradient id="cardZh" x1="280" y1="60" x2="1360" y2="700" gradientUnits="userSpaceOnUse">
      <stop stop-color="#FFFFFF"/>
      <stop offset="1" stop-color="#F7FAFF"/>
    </linearGradient>
  </defs>
  <rect width="1600" height="820" rx="44" fill="url(#bgZh)"/>
  <rect x="28" y="28" width="216" height="764" rx="32" fill="#FFFFFF" stroke="#D9E4F2" stroke-width="2"/>
  <rect x="56" y="58" width="92" height="28" rx="14" fill="#EEF5FF" stroke="#BCD8FF" stroke-width="2"/>
  <text x="74" y="78" fill="#1F68D6" font-family="Arial, sans-serif" font-size="18" font-weight="700" letter-spacing="1.6">OPENCLAW</text>
  <text x="56" y="126" fill="#171C26" font-family="Arial, sans-serif" font-size="28" font-weight="800">OpenClaw</text>
  <text x="56" y="164" fill="#171C26" font-family="Arial, sans-serif" font-size="28" font-weight="800">Control</text>
  <text x="56" y="202" fill="#171C26" font-family="Arial, sans-serif" font-size="28" font-weight="800">Center</text>
  <text x="56" y="252" fill="#7A8494" font-family="Arial, sans-serif" font-size="18">中文默认 · 本地控制中心</text>
  <rect x="48" y="318" width="176" height="84" rx="24" fill="#F6FAFF" stroke="#BFD8FF" stroke-width="2"/>
  <text x="68" y="354" fill="#1D2430" font-family="Arial, sans-serif" font-size="18" font-weight="700">总览</text>
  <text x="68" y="383" fill="#7A8494" font-family="Arial, sans-serif" font-size="16">系统状态与重点</text>
  <rect x="48" y="420" width="176" height="84" rx="24" fill="#FFFFFF" stroke="#E2EAF3" stroke-width="2"/>
  <text x="68" y="456" fill="#1D2430" font-family="Arial, sans-serif" font-size="18" font-weight="700">用量</text>
  <text x="68" y="485" fill="#7A8494" font-family="Arial, sans-serif" font-size="16">预算与订阅</text>
  <rect x="48" y="522" width="176" height="84" rx="24" fill="#FFFFFF" stroke="#E2EAF3" stroke-width="2"/>
  <text x="68" y="558" fill="#1D2430" font-family="Arial, sans-serif" font-size="18" font-weight="700">员工</text>
  <text x="68" y="587" fill="#7A8494" font-family="Arial, sans-serif" font-size="16">分工与状态</text>
  <rect x="272" y="28" width="1300" height="764" rx="36" fill="url(#cardZh)" stroke="#DDE7F2" stroke-width="2"/>
  <text x="320" y="110" fill="#171C26" font-family="Arial, sans-serif" font-size="60" font-weight="800">总览</text>
  <text x="320" y="152" fill="#6F7B8C" font-family="Arial, sans-serif" font-size="24">一页回答系统是否正常、谁在工作、是否要你介入、预算是否异常。</text>
  <rect x="320" y="190" width="980" height="286" rx="34" fill="#FFFFFF" stroke="#DDE7F2" stroke-width="2"/>
  <text x="360" y="244" fill="#171C26" font-family="Arial, sans-serif" font-size="30" font-weight="800">今日总控态势</text>
  <text x="360" y="282" fill="#778293" font-family="Arial, sans-serif" font-size="20">健康分、推进状态与预算风险在同一屏。</text>
  <rect x="1128" y="220" width="132" height="54" rx="27" fill="#E6F7EF" stroke="#9ED0B2" stroke-width="2"/>
  <text x="1168" y="255" fill="#268355" font-family="Arial, sans-serif" font-size="24" font-weight="700">稳定</text>
  <circle cx="470" cy="350" r="84" fill="#1FA36A"/>
  <circle cx="470" cy="350" r="66" fill="#FFFFFF"/>
  <text x="435" y="342" fill="#182234" font-family="Arial, sans-serif" font-size="42" font-weight="800">100</text>
  <text x="425" y="376" fill="#6F7B8C" font-family="Arial, sans-serif" font-size="20" font-weight="700">健康分</text>
  <text x="594" y="336" fill="#142845" font-family="Arial, sans-serif" font-size="42" font-weight="800">推进顺畅</text>
  <text x="594" y="382" fill="#59677A" font-family="Arial, sans-serif" font-size="24">待处理 0 · 异常 0 · 停滞 0 · 预算风险 0</text>
  <rect x="360" y="420" width="198" height="50" rx="25" fill="#F4F9FF" stroke="#BFD8FF" stroke-width="2"/>
  <text x="394" y="452" fill="#1F68D6" font-family="Arial, sans-serif" font-size="22" font-weight="700">维持当前节奏</text>
  <rect x="320" y="500" width="232" height="156" rx="28" fill="#FFFFFF" stroke="#DDE7F2" stroke-width="2"/>
  <text x="352" y="548" fill="#7A8494" font-family="Arial, sans-serif" font-size="20" font-weight="700">关键事项</text>
  <text x="352" y="616" fill="#132843" font-family="Arial, sans-serif" font-size="72" font-weight="800">0</text>
  <text x="352" y="650" fill="#7A8494" font-family="Arial, sans-serif" font-size="20">无需人工介入</text>
  <rect x="576" y="500" width="220" height="156" rx="28" fill="#FFFFFF" stroke="#DDE7F2" stroke-width="2"/>
  <text x="608" y="548" fill="#7A8494" font-family="Arial, sans-serif" font-size="20" font-weight="700">运行异常</text>
  <text x="608" y="616" fill="#132843" font-family="Arial, sans-serif" font-size="72" font-weight="800">0</text>
  <text x="608" y="650" fill="#7A8494" font-family="Arial, sans-serif" font-size="20">状态正常</text>
  <rect x="820" y="500" width="220" height="156" rx="28" fill="#FFFFFF" stroke="#DDE7F2" stroke-width="2"/>
  <text x="852" y="548" fill="#7A8494" font-family="Arial, sans-serif" font-size="20" font-weight="700">停滞执行</text>
  <text x="852" y="616" fill="#132843" font-family="Arial, sans-serif" font-size="72" font-weight="800">0</text>
  <text x="852" y="650" fill="#7A8494" font-family="Arial, sans-serif" font-size="20">信号新鲜</text>
  <rect x="1064" y="500" width="236" height="156" rx="28" fill="#FFFFFF" stroke="#DDE7F2" stroke-width="2"/>
  <text x="1096" y="548" fill="#7A8494" font-family="Arial, sans-serif" font-size="20" font-weight="700">预算风险</text>
  <text x="1096" y="616" fill="#132843" font-family="Arial, sans-serif" font-size="72" font-weight="800">0</text>
  <text x="1096" y="650" fill="#7A8494" font-family="Arial, sans-serif" font-size="20">当前安全</text>
  <rect x="1332" y="190" width="208" height="206" rx="30" fill="#FFFFFF" stroke="#DDE7F2" stroke-width="2"/>
  <text x="1362" y="240" fill="#1A202C" font-family="Arial, sans-serif" font-size="24" font-weight="800">当前状态</text>
  <text x="1362" y="284" fill="#7A8494" font-family="Arial, sans-serif" font-size="18">活跃会话：1</text>
  <text x="1362" y="316" fill="#7A8494" font-family="Arial, sans-serif" font-size="18">待处理：0</text>
  <text x="1362" y="348" fill="#7A8494" font-family="Arial, sans-serif" font-size="18">定时任务：8</text>
  <text x="1362" y="380" fill="#7A8494" font-family="Arial, sans-serif" font-size="18">当前任务：0</text>
  <rect x="1332" y="420" width="208" height="236" rx="30" fill="#FFFFFF" stroke="#DDE7F2" stroke-width="2"/>
  <text x="1362" y="470" fill="#1A202C" font-family="Arial, sans-serif" font-size="24" font-weight="800">用量与订阅</text>
  <text x="1362" y="514" fill="#7A8494" font-family="Arial, sans-serif" font-size="18">今日 AI 用量：可见</text>
  <text x="1362" y="546" fill="#7A8494" font-family="Arial, sans-serif" font-size="18">今日费用：可见</text>
  <rect x="1362" y="578" width="148" height="18" rx="9" fill="#E7F0FA"/>
  <rect x="1362" y="578" width="42" height="18" rx="9" fill="#4AA8B2"/>
  <text x="1362" y="626" fill="#6F7B8C" font-family="Arial, sans-serif" font-size="18">配额窗口可视</text>
</svg>
