<svg width="1200" height="980" viewBox="0 0 1200 980" fill="none" xmlns="http://www.w3.org/2000/svg">
  <rect width="1200" height="980" rx="40" fill="#F5F7FB"/>
  <rect x="34" y="34" width="1132" height="912" rx="32" fill="#FFFFFF" stroke="#DDE7F2" stroke-width="2"/>
  <text x="76" y="108" fill="#171C26" font-family="Arial, sans-serif" font-size="44" font-weight="800">Staff</text>
  <text x="76" y="150" fill="#738093" font-family="Arial, sans-serif" font-size="22">See who is working, who is waiting, and who is scheduled without exposing real output text.</text>
  <rect x="76" y="196" width="494" height="286" rx="28" fill="#FBFDFF" stroke="#DDE7F2" stroke-width="2"/>
  <circle cx="164" cy="284" r="52" fill="#EEF5FF"/>
  <circle cx="164" cy="272" r="18" fill="#D9B38C"/>
  <rect x="138" y="294" width="52" height="28" rx="14" fill="#7C9ED6"/>
  <text x="240" y="264" fill="#171C26" font-family="Arial, sans-serif" font-size="34" font-weight="800">Agent A</text>
  <text x="240" y="302" fill="#6F7B8C" font-family="Arial, sans-serif" font-size="22">Control and coordination</text>
  <text x="100" y="372" fill="#7A8494" font-family="Arial, sans-serif" font-size="18">Status</text>
  <text x="220" y="372" fill="#1E2A39" font-family="Arial, sans-serif" font-size="18" font-weight="700">Working</text>
  <text x="100" y="410" fill="#7A8494" font-family="Arial, sans-serif" font-size="18">Working on</text>
  <text x="220" y="410" fill="#1E2A39" font-family="Arial, sans-serif" font-size="18" font-weight="700">Key task</text>
  <text x="100" y="448" fill="#7A8494" font-family="Arial, sans-serif" font-size="18">In schedule</text>
  <text x="220" y="448" fill="#1E2A39" font-family="Arial, sans-serif" font-size="18" font-weight="700">Scheduled</text>
  <rect x="600" y="196" width="494" height="286" rx="28" fill="#FBFDFF" stroke="#DDE7F2" stroke-width="2"/>
  <circle cx="688" cy="284" r="52" fill="#FFF4E8"/>
  <circle cx="688" cy="272" r="18" fill="#C88C72"/>
  <rect x="662" y="294" width="52" height="28" rx="14" fill="#B08259"/>
  <text x="764" y="264" fill="#171C26" font-family="Arial, sans-serif" font-size="34" font-weight="800">Agent B</text>
  <text x="764" y="302" fill="#6F7B8C" font-family="Arial, sans-serif" font-size="22">Research and summary</text>
  <text x="624" y="372" fill="#7A8494" font-family="Arial, sans-serif" font-size="18">Status</text>
  <text x="744" y="372" fill="#1E2A39" font-family="Arial, sans-serif" font-size="18" font-weight="700">Standing by</text>
  <text x="624" y="410" fill="#7A8494" font-family="Arial, sans-serif" font-size="18">Next up</text>
  <text x="744" y="410" fill="#1E2A39" font-family="Arial, sans-serif" font-size="18" font-weight="700">Daily review</text>
  <text x="624" y="448" fill="#7A8494" font-family="Arial, sans-serif" font-size="18">In schedule</text>
  <text x="744" y="448" fill="#1E2A39" font-family="Arial, sans-serif" font-size="18" font-weight="700">Not scheduled</text>
  <rect x="76" y="520" width="494" height="286" rx="28" fill="#FBFDFF" stroke="#DDE7F2" stroke-width="2"/>
  <circle cx="164" cy="608" r="52" fill="#EEF8F0"/>
  <circle cx="164" cy="596" r="18" fill="#F1CC85"/>
  <rect x="138" y="618" width="52" height="28" rx="14" fill="#8BAA77"/>
  <text x="240" y="588" fill="#171C26" font-family="Arial, sans-serif" font-size="34" font-weight="800">Agent C</text>
  <text x="240" y="626" fill="#6F7B8C" font-family="Arial, sans-serif" font-size="22">Content and docs</text>
  <text x="100" y="696" fill="#7A8494" font-family="Arial, sans-serif" font-size="18">Status</text>
  <text x="220" y="696" fill="#1E2A39" font-family="Arial, sans-serif" font-size="18" font-weight="700">Working</text>
  <text x="100" y="734" fill="#7A8494" font-family="Arial, sans-serif" font-size="18">Recent output</text>
  <text x="220" y="734" fill="#1E2A39" font-family="Arial, sans-serif" font-size="18" font-weight="700">Hidden for public preview</text>
  <text x="100" y="772" fill="#7A8494" font-family="Arial, sans-serif" font-size="18">In schedule</text>
  <text x="220" y="772" fill="#1E2A39" font-family="Arial, sans-serif" font-size="18" font-weight="700">Scheduled</text>
  <rect x="600" y="520" width="494" height="286" rx="28" fill="#FBFDFF" stroke="#DDE7F2" stroke-width="2"/>
  <circle cx="688" cy="608" r="52" fill="#F2F5FF"/>
  <circle cx="688" cy="596" r="18" fill="#E0A97A"/>
  <rect x="662" y="618" width="52" height="28" rx="14" fill="#9AA9DA"/>
  <text x="764" y="588" fill="#171C26" font-family="Arial, sans-serif" font-size="34" font-weight="800">Agent D</text>
  <text x="764" y="626" fill="#6F7B8C" font-family="Arial, sans-serif" font-size="22">Alerts and safety</text>
  <text x="624" y="696" fill="#7A8494" font-family="Arial, sans-serif" font-size="18">Status</text>
  <text x="744" y="696" fill="#1E2A39" font-family="Arial, sans-serif" font-size="18" font-weight="700">Standing by</text>
  <text x="624" y="734" fill="#7A8494" font-family="Arial, sans-serif" font-size="18">Next up</text>
  <text x="744" y="734" fill="#1E2A39" font-family="Arial, sans-serif" font-size="18" font-weight="700">Exception alert</text>
  <text x="624" y="772" fill="#7A8494" font-family="Arial, sans-serif" font-size="18">In schedule</text>
  <text x="744" y="772" fill="#1E2A39" font-family="Arial, sans-serif" font-size="18" font-weight="700">Scheduled</text>
</svg>
