<svg width="1400" height="980" viewBox="0 0 1400 980" fill="none" xmlns="http://www.w3.org/2000/svg">
  <rect width="1400" height="980" rx="40" fill="#F5F7FB"/>
  <rect x="38" y="38" width="1324" height="904" rx="32" fill="#FFFFFF" stroke="#DDE7F2" stroke-width="2"/>
  <text x="88" y="118" fill="#161C26" font-family="Arial, sans-serif" font-size="42" font-weight="800">Token attribution</text>
  <text x="88" y="162" fill="#748093" font-family="Arial, sans-serif" font-size="22">See which classes of work are consuming tokens without exposing real operator data.</text>
  <circle cx="330" cy="474" r="172" fill="#DCE9FA"/>
  <path d="M330 302 A172 172 0 0 1 488 410 L392 448 A66 66 0 0 0 330 408 Z" fill="#4C80C4"/>
  <path d="M488 410 A172 172 0 0 1 470 592 L382 536 A66 66 0 0 0 392 448 Z" fill="#F59A2A"/>
  <path d="M470 592 A172 172 0 0 1 310 644 L322 548 A66 66 0 0 0 382 536 Z" fill="#E55B5B"/>
  <path d="M310 644 A172 172 0 0 1 184 556 L276 524 A66 66 0 0 0 322 548 Z" fill="#73BDB7"/>
  <path d="M184 556 A172 172 0 0 1 184 392 L276 424 A66 66 0 0 0 276 524 Z" fill="#63AE57"/>
  <path d="M184 392 A172 172 0 0 1 330 302 L330 408 A66 66 0 0 0 276 424 Z" fill="#E8C33D"/>
  <circle cx="330" cy="474" r="106" fill="#FFFFFF"/>
  <text x="256" y="468" fill="#15243C" font-family="Arial, sans-serif" font-size="36" font-weight="800">Timed jobs</text>
  <text x="258" y="512" fill="#768194" font-family="Arial, sans-serif" font-size="26">share view</text>
  <rect x="610" y="252" width="660" height="86" rx="20" fill="#F8FBFF" stroke="#D9E7F5" stroke-width="2"/>
  <circle cx="654" cy="295" r="10" fill="#4C80C4"/>
  <text x="682" y="304" fill="#1E2A39" font-family="Arial, sans-serif" font-size="28" font-weight="700">Job A</text>
  <text x="1128" y="304" fill="#687586" font-family="Arial, sans-serif" font-size="28">42%</text>
  <rect x="610" y="356" width="660" height="86" rx="20" fill="#F8FBFF" stroke="#D9E7F5" stroke-width="2"/>
  <circle cx="654" cy="399" r="10" fill="#F59A2A"/>
  <text x="682" y="408" fill="#1E2A39" font-family="Arial, sans-serif" font-size="28" font-weight="700">Job B</text>
  <text x="1128" y="408" fill="#687586" font-family="Arial, sans-serif" font-size="28">22%</text>
  <rect x="610" y="460" width="660" height="86" rx="20" fill="#F8FBFF" stroke="#D9E7F5" stroke-width="2"/>
  <circle cx="654" cy="503" r="10" fill="#E55B5B"/>
  <text x="682" y="512" fill="#1E2A39" font-family="Arial, sans-serif" font-size="28" font-weight="700">Job C</text>
  <text x="1128" y="512" fill="#687586" font-family="Arial, sans-serif" font-size="28">16%</text>
  <rect x="610" y="564" width="660" height="86" rx="20" fill="#F8FBFF" stroke="#D9E7F5" stroke-width="2"/>
  <circle cx="654" cy="607" r="10" fill="#73BDB7"/>
  <text x="682" y="616" fill="#1E2A39" font-family="Arial, sans-serif" font-size="28" font-weight="700">Job D</text>
  <text x="1128" y="616" fill="#687586" font-family="Arial, sans-serif" font-size="28">11%</text>
  <rect x="610" y="668" width="660" height="86" rx="20" fill="#F8FBFF" stroke="#D9E7F5" stroke-width="2"/>
  <circle cx="654" cy="711" r="10" fill="#63AE57"/>
  <text x="682" y="720" fill="#1E2A39" font-family="Arial, sans-serif" font-size="28" font-weight="700">Other sources</text>
  <text x="1128" y="720" fill="#687586" font-family="Arial, sans-serif" font-size="28">9%</text>
  <rect x="88" y="786" width="1182" height="92" rx="24" fill="#F4F9FF" stroke="#C8DCF7" stroke-width="2"/>
  <text x="126" y="842" fill="#1E67D2" font-family="Arial, sans-serif" font-size="26" font-weight="700">Designed for shareable demos without real job names or token counts</text>
</svg>
